<?xml version="1.0" encoding="UTF-8" standalone="no"?>
<svg
   xmlns:dc="http://purl.org/dc/elements/1.1/"
   xmlns:cc="http://creativecommons.org/ns#"
   xmlns:rdf="http://www.w3.org/1999/02/22-rdf-syntax-ns#"
   xmlns:svg="http://www.w3.org/2000/svg"
   xmlns="http://www.w3.org/2000/svg"
   xmlns:sodipodi="http://sodipodi.sourceforge.net/DTD/sodipodi-0.dtd"
   xmlns:inkscape="http://www.inkscape.org/namespaces/inkscape"
   inkscape:version="1.0 (6e3e5246a0, 2020-05-07)"
   inkscape:export-ydpi="1280"
   inkscape:export-xdpi="1280"
   inkscape:export-filename="/home/ap/Projects/Asiakkaat/tailwind-baseline-site/site/src/images/tailwind-baseline-logo.png"
   sodipodi:docname="tailwind-baseline-logo.svg"
   id="svg37"
   version="1.1"
   viewBox="4 4 120 120"
   width="120"
   height="120">
  <metadata
     id="metadata41">
    <rdf:RDF>
      <cc:Work
         rdf:about="">
        <dc:format>image/svg+xml</dc:format>
        <dc:type
           rdf:resource="http://purl.org/dc/dcmitype/StillImage" />
        <dc:title></dc:title>
      </cc:Work>
    </rdf:RDF>
  </metadata>
  <sodipodi:namedview
     inkscape:current-layer="svg37"
     inkscape:window-maximized="1"
     inkscape:window-y="35"
     inkscape:window-x="1992"
     inkscape:cy="60"
     inkscape:cx="60"
     inkscape:zoom="7.65"
     showgrid="false"
     id="namedview39"
     inkscape:window-height="1165"
     inkscape:window-width="1848"
     inkscape:pageshadow="2"
     inkscape:pageopacity="0"
     guidetolerance="10"
     gridtolerance="10"
     objecttolerance="10"
     borderopacity="1"
     bordercolor="#666666"
     pagecolor="#ffffff" />
  <defs
     id="defs7">
    <linearGradient
       gradientUnits="userSpaceOnUse"
       y2="48"
       x2="59"
       y1="16"
       x1="3.5"
       id="a"
       gradientTransform="matrix(-1.70231 0 0 1.70231 121.022 -13.075)">
      <stop
         id="stop2"
         stop-color="#2298BD" />
      <stop
         id="stop4"
         stop-color="#0ED7B5"
         offset="1" />
    </linearGradient>
  </defs>
  <path
     id="path9"
     transform="translate(0 20.783)"
     fill-rule="evenodd"
     fill="url(#a)"
     clip-rule="evenodd"
     d="M66.548 14.162c12.257 0 19.918 6.129 22.982 18.385-4.597-6.128-9.959-8.426-16.087-6.895-3.496.875-5.996 3.411-8.762 6.22-4.506 4.574-9.722 9.867-21.113 9.867-12.257 0-19.918-6.128-22.981-18.384 4.595 6.128 9.958 8.426 16.086 6.894 3.497-.874 5.996-3.41 8.762-6.219 4.507-4.574 9.722-9.868 21.114-9.868zM89.53 41.74c12.257 0 19.917 6.129 22.98 18.385-4.595-6.128-9.958-8.426-16.086-6.894-3.496.875-5.996 3.41-8.762 6.219-4.506 4.574-9.722 9.868-21.113 9.868-12.257 0-19.917-6.128-22.981-18.385 4.596 6.128 9.958 8.426 16.087 6.894 3.496-.874 5.995-3.41 8.761-6.218 4.507-4.574 9.722-9.869 21.114-9.869z" />
  <path
     id="path11"
     fill="#f687b3"
     d="M17.252 42.691l58.253-14.184a1.11 1.11 0 00.809-1.344 1.11 1.11 0 00-1.336-.822L16.732 40.524a1.11 1.11 0 00-.808 1.344 1.099 1.099 0 001.328.823z" />
  <path
     id="path13"
     fill="#ed64a6"
     d="M6.726 48.524l8.85-2.154c2.28-.556 3.671-2.868 3.11-5.17-.56-2.304-2.859-3.719-5.14-3.164l-8.849 2.155a.92.92 0 00-.67 1.117l1.591 6.534a.93.93 0 001.109.682z" />
  <path
     id="path15"
     fill="#b83280"
     opacity=".2"
     d="M16.189 39.493a3.104 3.104 0 00-2.38-.377l-8.667 2.11 1.502 6.168 8.667-2.11a3.18 3.149 76.315 002.302-3.828 3.15 3.12 76.315 00-1.424-1.963m.57-.95a4.298 4.298 0 011.928 2.656 4.285 4.242 76.315 01-3.112 5.171l-8.849 2.154a.911.911 0 01-1.104-.68L4.03 41.31a.92.92 0 01.671-1.116l8.85-2.155a4.232 4.19 76.315 013.208.504z" />
  <path
     id="path17"
     stroke-linecap="round"
     stroke-width="4.987"
     stroke="#f687b3"
     fill="none"
     d="M75.681 27.301l-3.03.738"
     stroke-miterlimit="10" />
  <path
     id="path19"
     fill="#f687b3"
     d="M63.087 97.333l58.253-14.184a1.11 1.11 0 00.809-1.344 1.11 1.11 0 00-1.336-.822L62.567 95.166a1.11 1.11 0 00-.809 1.343 1.099 1.099 0 001.328.824z" />
  <path
     id="path21"
     fill="#ed64a6"
     d="M52.561 103.166l8.85-2.154c2.28-.556 3.671-2.868 3.11-5.171-.56-2.303-2.859-3.718-5.14-3.163l-8.849 2.155a.92.92 0 00-.67 1.116l1.59 6.535a.93.93 0 001.11.682z" />
  <path
     id="path23"
     fill="#b83280"
     opacity=".2"
     d="M62.024 94.135a3.104 3.104 0 00-2.38-.378l-8.667 2.11 1.502 6.168 8.667-2.11a3.18 3.149 76.315 002.302-3.827 3.15 3.12 76.315 00-1.424-1.963m.57-.95a4.298 4.298 0 011.927 2.656 4.285 4.242 76.315 01-3.11 5.17l-8.85 2.155a.911.911 0 01-1.104-.68l-1.591-6.534a.92.92 0 01.671-1.116l8.85-2.155a4.232 4.19 76.315 013.208.504z" />
  <path
     id="path25"
     transform="matrix(-.47197 -.29036 -.28565 .47483 134.395 78.807)"
     stroke-linecap="round"
     stroke-width="9"
     stroke="#f687b3"
     fill="none"
     d="M17 17l4 4"
     stroke-miterlimit="10" />
  <g
     id="g35">
    <path
       id="path27"
       fill="#f687b3"
       d="M40.396 70.012L98.65 55.828a1.11 1.11 0 00.809-1.344 1.11 1.11 0 00-1.336-.822L39.877 67.845a1.11 1.11 0 00-.81 1.344 1.099 1.099 0 001.33.824z" />
    <path
       id="path29"
       fill="#ed64a6"
       d="M29.87 75.845l8.85-2.154c2.28-.556 3.671-2.868 3.11-5.171-.56-2.303-2.859-3.718-5.14-3.163l-8.849 2.155a.92.92 0 00-.67 1.117l1.591 6.534a.93.93 0 001.109.682z" />
    <path
       id="path31"
       fill="#b83280"
       opacity=".2"
       d="M39.333 66.814a3.104 3.104 0 00-2.38-.378l-8.666 2.11 1.5 6.169 8.668-2.11a3.18 3.149 76.315 002.302-3.828 3.15 3.12 76.315 00-1.424-1.963m.57-.95a4.298 4.298 0 011.928 2.656 4.285 4.242 76.315 01-3.112 5.17l-8.849 2.155a.911.911 0 01-1.103-.68l-1.592-6.534a.92.92 0 01.67-1.116l8.85-2.155a4.232 4.19 76.315 013.208.504z" />
    <path
       id="path33"
       transform="matrix(-.47197 -.29036 -.28565 .47483 111.705 51.486)"
       stroke-linecap="round"
       stroke-width="9"
       stroke="#f687b3"
       fill="none"
       d="M17 17l4 4"
       stroke-miterlimit="10" />
  </g>
</svg>
